<svg width="60" height="60" viewBox="0 0 60 60" fill="none" xmlns="http://www.w3.org/2000/svg">
<path d="M5.00098 29.9941C5.00098 20.5661 5.00098 15.852 7.92991 12.9231C10.8588 9.99414 15.5729 9.99414 25.001 9.99414H35.001C44.4291 9.99414 49.1431 9.99414 52.072 12.9231C55.001 15.852 55.001 20.5661 55.001 29.9941C55.001 39.4222 55.001 44.1363 52.072 47.0652C49.1431 49.9941 44.4291 49.9941 35.001 49.9941H25.001C15.5729 49.9941 10.8588 49.9941 7.92991 47.0652C5.00098 44.1363 5.00098 39.4222 5.00098 29.9941Z" fill="#1E1E1E" stroke="#1E1E1E" stroke-width="1.5"/>
<path d="M15 20.0059L20.3972 24.5036C24.9888 28.3299 27.2846 30.243 30 30.243C32.7154 30.243 35.0112 28.3299 39.6028 24.5036L45 20.0059" stroke="white" stroke-width="1.5" stroke-linecap="round"/>
</svg>
