<svg width="28" height="28" viewBox="0 0 28 28" fill="none" xmlns="http://www.w3.org/2000/svg">
<path d="M2.33398 13.9974C2.33398 9.59762 2.33398 7.39773 3.70082 6.0309C5.06765 4.66406 7.26754 4.66406 11.6673 4.66406H16.334C20.7338 4.66406 22.9336 4.66406 24.3005 6.0309C25.6673 7.39773 25.6673 9.59762 25.6673 13.9974C25.6673 18.3972 25.6673 20.5971 24.3005 21.9639C22.9336 23.3307 20.7338 23.3307 16.334 23.3307H11.6673C7.26754 23.3307 5.06765 23.3307 3.70082 21.9639C2.33398 20.5971 2.33398 18.3972 2.33398 13.9974Z" stroke="#1E1E1E" stroke-width="1.5"/>
<path d="M7 9.33594L9.51871 11.4349C11.6615 13.2205 12.7328 14.1133 14 14.1133C15.2672 14.1133 16.3385 13.2205 18.4813 11.4349L21 9.33594" stroke="#1E1E1E" stroke-width="1.5" stroke-linecap="round"/>
</svg>
