<svg width="28" height="28" viewBox="0 0 28 28" fill="none" xmlns="http://www.w3.org/2000/svg">
<path d="M11.7099 6.1996L12.4671 7.55635C13.1504 8.78074 12.8761 10.3869 11.7998 11.4632C11.7998 11.4632 10.4944 12.7686 12.8613 15.1355C15.2281 17.5023 16.5336 16.1969 16.5336 16.1969C17.6098 15.1207 19.216 14.8464 20.4404 15.5297L21.7972 16.2869C23.646 17.3187 23.8644 19.9115 22.2392 21.5366C21.2627 22.5131 20.0665 23.273 18.7441 23.3231C16.5179 23.4075 12.7373 22.8441 8.945 19.0517C5.15266 15.2594 4.58927 11.4788 4.67366 9.25266C4.72379 7.93026 5.48362 6.734 6.46012 5.7575C8.08523 4.13239 10.6781 4.35074 11.7099 6.1996Z" stroke="#1E1E1E" stroke-width="1.5" stroke-linecap="round"/>
</svg>
