<svg width="22" height="22" viewBox="0 0 22 22" fill="none" xmlns="http://www.w3.org/2000/svg">
<g clip-path="url(#clip0_3221_2949)">
<rect width="22" height="22" rx="11" fill="white"/>
<rect x="-5" y="-0.5" width="32" height="23" rx="2" fill="white"/>
<mask id="mask0_3221_2949" style="mask-type:luminance" maskUnits="userSpaceOnUse" x="-5" y="-1" width="32" height="24">
<rect x="-5" y="-0.5" width="32" height="23" rx="2" fill="white"/>
</mask>
<g mask="url(#mask0_3221_2949)">
<path d="M27 22.5H-5V20.9668H27V22.5ZM27 19.4336H-5V17.9004H27V19.4336ZM27 16.3672H-5V14.834H27V16.3672ZM27 13.2988H-5V11.7656H27V13.2988ZM27 10.2324H-5V8.69922H27V10.2324ZM27 7.16797H-5V5.63477H27V7.16797ZM27 4.09961H-5V2.56641H27V4.09961ZM27 1.0332H-5V-0.5H27V1.0332Z" fill="#D02F44"/>
<rect x="-5" y="-0.5" width="13.7143" height="10.7333" fill="#46467F"/>
<g filter="url(#filter0_d_3221_2949)">
<path d="M-2.71484 7.16797C-2.29408 7.16797 -1.95316 7.51118 -1.95312 7.93457C-1.95312 8.35799 -2.29406 8.70117 -2.71484 8.70117C-3.13555 8.70107 -3.47656 8.35793 -3.47656 7.93457C-3.47653 7.51124 -3.13553 7.16807 -2.71484 7.16797ZM0.333008 7.16797C0.753748 7.168 1.09469 7.5112 1.09473 7.93457C1.09473 8.35797 0.753769 8.70114 0.333008 8.70117C-0.0877805 8.70117 -0.428711 8.35799 -0.428711 7.93457C-0.428676 7.51118 -0.087759 7.16797 0.333008 7.16797ZM3.37988 7.16797C3.80065 7.16797 4.14254 7.51118 4.14258 7.93457C4.14258 8.35799 3.80067 8.70117 3.37988 8.70117C2.95929 8.70094 2.61816 8.35784 2.61816 7.93457C2.6182 7.51133 2.95931 7.1682 3.37988 7.16797ZM6.42871 7.16797C6.84934 7.16813 7.19039 7.51128 7.19043 7.93457C7.19043 8.35789 6.84936 8.70101 6.42871 8.70117C6.00792 8.70117 5.66699 8.35799 5.66699 7.93457C5.66703 7.51118 6.00794 7.16797 6.42871 7.16797ZM-1.19043 5.63281C-0.769861 5.63307 -0.428711 5.97616 -0.428711 6.39941C-0.428734 6.82265 -0.769875 7.16576 -1.19043 7.16602C-1.6112 7.16602 -1.9531 6.82281 -1.95312 6.39941C-1.95312 5.976 -1.61122 5.63281 -1.19043 5.63281ZM1.85645 5.63281C2.27723 5.63281 2.61816 5.976 2.61816 6.39941C2.61814 6.82281 2.27722 7.16602 1.85645 7.16602C1.43574 7.16594 1.09475 6.82276 1.09473 6.39941C1.09473 5.97605 1.43572 5.63289 1.85645 5.63281ZM4.9043 5.63281C5.32499 5.63292 5.66602 5.97606 5.66602 6.39941C5.66599 6.82274 5.32498 7.1659 4.9043 7.16602C4.48352 7.16602 4.1426 6.82281 4.14258 6.39941C4.14258 5.976 4.48351 5.63281 4.9043 5.63281ZM-2.71484 4.09961C-2.29408 4.09961 -1.95316 4.44282 -1.95312 4.86621C-1.95312 5.28963 -2.29406 5.63281 -2.71484 5.63281C-3.13555 5.63271 -3.47656 5.28957 -3.47656 4.86621C-3.47653 4.44288 -3.13553 4.09971 -2.71484 4.09961ZM0.333008 4.09961C0.753748 4.09964 1.09469 4.44284 1.09473 4.86621C1.09473 5.28961 0.753769 5.63278 0.333008 5.63281C-0.0877805 5.63281 -0.428711 5.28963 -0.428711 4.86621C-0.428676 4.44282 -0.087759 4.09961 0.333008 4.09961ZM3.37988 4.09961C3.80065 4.09961 4.14254 4.44282 4.14258 4.86621C4.14258 5.28963 3.80067 5.63281 3.37988 5.63281C2.95929 5.63258 2.61816 5.28948 2.61816 4.86621C2.6182 4.44297 2.95931 4.09984 3.37988 4.09961ZM6.42871 4.09961C6.84934 4.09977 7.19039 4.44292 7.19043 4.86621C7.19043 5.28953 6.84936 5.63265 6.42871 5.63281C6.00792 5.63281 5.66699 5.28963 5.66699 4.86621C5.66703 4.44282 6.00794 4.09961 6.42871 4.09961ZM-1.19141 2.56641C-0.770639 2.56641 -0.428746 2.90962 -0.428711 3.33301C-0.428711 3.75643 -0.770618 4.09961 -1.19141 4.09961C-1.612 4.09938 -1.95312 3.75628 -1.95312 3.33301C-1.95309 2.90976 -1.61198 2.56664 -1.19141 2.56641ZM1.85645 2.56641C2.27721 2.56641 2.61813 2.90962 2.61816 3.33301C2.61816 3.75643 2.27723 4.09961 1.85645 4.09961C1.43574 4.09951 1.09473 3.75636 1.09473 3.33301C1.09476 2.90968 1.43576 2.56651 1.85645 2.56641ZM4.9043 2.56641C5.32492 2.56657 5.66598 2.90972 5.66602 3.33301C5.66602 3.75632 5.32495 4.09945 4.9043 4.09961C4.48351 4.09961 4.14258 3.75643 4.14258 3.33301C4.14261 2.90962 4.48353 2.56641 4.9043 2.56641ZM-2.71484 1.0332C-2.29408 1.0332 -1.95316 1.37642 -1.95312 1.7998C-1.95312 2.22322 -2.29406 2.56641 -2.71484 2.56641C-3.13555 2.56631 -3.47656 2.22316 -3.47656 1.7998C-3.47653 1.37648 -3.13553 1.0333 -2.71484 1.0332ZM0.333008 1.0332C0.753753 1.03323 1.09469 1.37643 1.09473 1.7998C1.09473 2.22321 0.753775 2.56638 0.333008 2.56641C-0.0877805 2.56641 -0.428711 2.22322 -0.428711 1.7998C-0.428676 1.37642 -0.087759 1.0332 0.333008 1.0332ZM3.38086 1.0332C3.8015 1.03335 4.14254 1.37651 4.14258 1.7998C4.14258 2.22313 3.80152 2.56625 3.38086 2.56641C2.96007 2.56641 2.61914 2.22322 2.61914 1.7998C2.61918 1.37642 2.96009 1.0332 3.38086 1.0332ZM6.42773 1.0332C6.8485 1.0332 7.19039 1.37642 7.19043 1.7998C7.19043 2.22322 6.84852 2.56641 6.42773 2.56641C6.00716 2.56615 5.66602 2.22307 5.66602 1.7998C5.66605 1.37657 6.00718 1.03346 6.42773 1.0332Z" fill="url(#paint0_linear_3221_2949)"/>
</g>
</g>
</g>
<defs>
<filter id="filter0_d_3221_2949" x="-3.47656" y="1.0332" width="10.667" height="8.66797" filterUnits="userSpaceOnUse" color-interpolation-filters="sRGB">
<feFlood flood-opacity="0" result="BackgroundImageFix"/>
<feColorMatrix in="SourceAlpha" type="matrix" values="0 0 0 0 0 0 0 0 0 0 0 0 0 0 0 0 0 0 127 0" result="hardAlpha"/>
<feOffset dy="1"/>
<feColorMatrix type="matrix" values="0 0 0 0 0 0 0 0 0 0 0 0 0 0 0 0 0 0 0.06 0"/>
<feBlend mode="normal" in2="BackgroundImageFix" result="effect1_dropShadow_3221_2949"/>
<feBlend mode="normal" in="SourceGraphic" in2="effect1_dropShadow_3221_2949" result="shape"/>
</filter>
<linearGradient id="paint0_linear_3221_2949" x1="-3.47656" y1="1.0332" x2="-3.47656" y2="8.70117" gradientUnits="userSpaceOnUse">
<stop stop-color="white"/>
<stop offset="1" stop-color="#F0F0F0"/>
</linearGradient>
<clipPath id="clip0_3221_2949">
<rect width="22" height="22" rx="11" fill="white"/>
</clipPath>
</defs>
</svg>
